<svg width="378" height="367" viewBox="0 0 378 367" fill="none" xmlns="http://www.w3.org/2000/svg">
<g style="mix-blend-mode:hard-light" filter="url(#filter0_f)">
<ellipse cx="189" cy="183.168" rx="60" ry="53.5006" fill="#FF3780" fill-opacity="0.2"/>
</g>
<g style="mix-blend-mode:hard-light" filter="url(#filter1_f)">
<path d="M164 138.584C150.195 138.584 139 149.664 139 163.334C139 174.369 143.375 200.559 186.44 227.034C187.211 227.503 188.097 227.752 189 227.752C189.903 227.752 190.789 227.503 191.56 227.034C234.625 200.559 239 174.369 239 163.334C239 149.664 227.805 138.584 214 138.584C200.195 138.584 189 153.584 189 153.584C189 153.584 177.805 138.584 164 138.584Z" stroke="#F32E7C" stroke-width="27.0833" stroke-linecap="round" stroke-linejoin="round"/>
</g>
<g style="mix-blend-mode:hard-light" filter="url(#filter2_f)">
<path d="M164 138.584C150.195 138.584 139 149.664 139 163.334C139 174.369 143.375 200.559 186.44 227.034C187.211 227.503 188.097 227.752 189 227.752C189.903 227.752 190.789 227.503 191.56 227.034C234.625 200.559 239 174.369 239 163.334C239 149.664 227.805 138.584 214 138.584C200.195 138.584 189 153.584 189 153.584C189 153.584 177.805 138.584 164 138.584Z" stroke="#FF26C2" stroke-width="35.4167" stroke-linecap="round" stroke-linejoin="round"/>
</g>
<g style="mix-blend-mode:hard-light" filter="url(#filter3_ddi)">
<path d="M164 138.584C150.195 138.584 139 149.664 139 163.334C139 174.369 143.375 200.559 186.44 227.034C187.211 227.503 188.097 227.752 189 227.752C189.903 227.752 190.789 227.503 191.56 227.034C234.625 200.559 239 174.369 239 163.334C239 149.664 227.805 138.584 214 138.584C200.195 138.584 189 153.584 189 153.584C189 153.584 177.805 138.584 164 138.584Z" stroke="#FB37FF" stroke-opacity="0.2" stroke-width="27.0833" stroke-linecap="round" stroke-linejoin="round"/>
</g>
<g filter="url(#filter4_f)">
<path d="M164 138.584C150.195 138.584 139 149.664 139 163.334C139 174.369 143.375 200.559 186.44 227.034C187.211 227.503 188.097 227.752 189 227.752C189.903 227.752 190.789 227.503 191.56 227.034C234.625 200.559 239 174.369 239 163.334C239 149.664 227.805 138.584 214 138.584C200.195 138.584 189 153.584 189 153.584C189 153.584 177.805 138.584 164 138.584Z" stroke="#FB37FF" stroke-width="16.6667" stroke-linecap="round" stroke-linejoin="round"/>
</g>
<g filter="url(#filter5_f)">
<path d="M164 138.584C150.195 138.584 139 149.664 139 163.334C139 174.369 143.375 200.559 186.44 227.034C187.211 227.503 188.097 227.752 189 227.752C189.903 227.752 190.789 227.503 191.56 227.034C234.625 200.559 239 174.369 239 163.334C239 149.664 227.805 138.584 214 138.584C200.195 138.584 189 153.584 189 153.584C189 153.584 177.805 138.584 164 138.584Z" stroke="white" stroke-width="8.33333" stroke-linecap="round" stroke-linejoin="round"/>
</g>
<defs>
<filter id="filter0_f" x="4" y="4.66699" width="370" height="357.001" filterUnits="userSpaceOnUse" color-interpolation-filters="sRGB">
<feFlood flood-opacity="0" result="BackgroundImageFix"/>
<feBlend mode="normal" in="SourceGraphic" in2="BackgroundImageFix" result="shape"/>
<feGaussianBlur stdDeviation="62.5" result="effect1_foregroundBlur"/>
</filter>
<filter id="filter1_f" x="0.458496" y="0.0422363" width="377.083" height="366.251" filterUnits="userSpaceOnUse" color-interpolation-filters="sRGB">
<feFlood flood-opacity="0" result="BackgroundImageFix"/>
<feBlend mode="normal" in="SourceGraphic" in2="BackgroundImageFix" result="shape"/>
<feGaussianBlur stdDeviation="62.5" result="effect1_foregroundBlur"/>
</filter>
<filter id="filter2_f" x="79.6248" y="79.2091" width="218.75" height="207.918" filterUnits="userSpaceOnUse" color-interpolation-filters="sRGB">
<feFlood flood-opacity="0" result="BackgroundImageFix"/>
<feBlend mode="normal" in="SourceGraphic" in2="BackgroundImageFix" result="shape"/>
<feGaussianBlur stdDeviation="20.8333" result="effect1_foregroundBlur"/>
</filter>
<filter id="filter3_ddi" x="71.2918" y="112.542" width="235.417" height="224.584" filterUnits="userSpaceOnUse" color-interpolation-filters="sRGB">
<feFlood flood-opacity="0" result="BackgroundImageFix"/>
<feColorMatrix in="SourceAlpha" type="matrix" values="0 0 0 0 0 0 0 0 0 0 0 0 0 0 0 0 0 0 127 0" result="hardAlpha"/>
<feOffset dy="27.0833"/>
<feGaussianBlur stdDeviation="10.4167"/>
<feColorMatrix type="matrix" values="0 0 0 0 0.3 0 0 0 0 0 0 0 0 0 0.26 0 0 0 0.7 0"/>
<feBlend mode="multiply" in2="BackgroundImageFix" result="effect1_dropShadow"/>
<feColorMatrix in="SourceAlpha" type="matrix" values="0 0 0 0 0 0 0 0 0 0 0 0 0 0 0 0 0 0 127 0" result="hardAlpha"/>
<feOffset dy="41.6667"/>
<feGaussianBlur stdDeviation="27.0833"/>
<feColorMatrix type="matrix" values="0 0 0 0 0.6 0 0 0 0 0 0 0 0 0 0.6 0 0 0 1 0"/>
<feBlend mode="color-dodge" in2="effect1_dropShadow" result="effect2_dropShadow"/>
<feBlend mode="normal" in="SourceGraphic" in2="effect2_dropShadow" result="shape"/>
<feColorMatrix in="SourceAlpha" type="matrix" values="0 0 0 0 0 0 0 0 0 0 0 0 0 0 0 0 0 0 127 0" result="hardAlpha"/>
<feOffset dx="-2.70833" dy="5.41667"/>
<feGaussianBlur stdDeviation="1.35417"/>
<feComposite in2="hardAlpha" operator="arithmetic" k2="-1" k3="1"/>
<feColorMatrix type="matrix" values="0 0 0 0 1 0 0 0 0 1 0 0 0 0 1 0 0 0 0.5 0"/>
<feBlend mode="normal" in2="shape" result="effect3_innerShadow"/>
</filter>
<filter id="filter4_f" x="126.5" y="126.084" width="125" height="114.168" filterUnits="userSpaceOnUse" color-interpolation-filters="sRGB">
<feFlood flood-opacity="0" result="BackgroundImageFix"/>
<feBlend mode="normal" in="SourceGraphic" in2="BackgroundImageFix" result="shape"/>
<feGaussianBlur stdDeviation="2.08333" result="effect1_foregroundBlur"/>
</filter>
<filter id="filter5_f" x="132.056" y="131.639" width="113.889" height="103.057" filterUnits="userSpaceOnUse" color-interpolation-filters="sRGB">
<feFlood flood-opacity="0" result="BackgroundImageFix"/>
<feBlend mode="normal" in="SourceGraphic" in2="BackgroundImageFix" result="shape"/>
<feGaussianBlur stdDeviation="1.38889" result="effect1_foregroundBlur"/>
</filter>
</defs>
</svg>
